<mxfile host="app.diagrams.net" modified="2024-03-02T08:59:31.882Z" agent="Mozilla/5.0 (Windows NT 10.0; Win64; x64) AppleWebKit/537.36 (KHTML, like Gecko) Chrome/122.0.0.0 Safari/537.36 Edg/122.0.0.0" etag="62TO-rPXOX56nx1MMole" version="24.0.0" type="device">
  <diagram name="Page-1" id="oRCiSP2gtdgpihLvPYBj">
    <mxGraphModel dx="1742" dy="2522" grid="1" gridSize="10" guides="1" tooltips="1" connect="1" arrows="1" fold="1" page="1" pageScale="1" pageWidth="827" pageHeight="1169" math="0" shadow="0">
      <root>
        <mxCell id="0" />
        <mxCell id="1" parent="0" />
        <mxCell id="OMTe5yJ27pXv2nIP3M5t-26" style="edgeStyle=orthogonalEdgeStyle;rounded=0;orthogonalLoop=1;jettySize=auto;html=1;exitX=0.5;exitY=1;exitDx=0;exitDy=0;entryX=0.5;entryY=0;entryDx=0;entryDy=0;" edge="1" parent="1" source="OMTe5yJ27pXv2nIP3M5t-2" target="OMTe5yJ27pXv2nIP3M5t-5">
          <mxGeometry relative="1" as="geometry" />
        </mxCell>
        <mxCell id="OMTe5yJ27pXv2nIP3M5t-27" value="west/far detected" style="edgeLabel;html=1;align=center;verticalAlign=middle;resizable=0;points=[];" vertex="1" connectable="0" parent="OMTe5yJ27pXv2nIP3M5t-26">
          <mxGeometry x="0.075" relative="1" as="geometry">
            <mxPoint as="offset" />
          </mxGeometry>
        </mxCell>
        <mxCell id="OMTe5yJ27pXv2nIP3M5t-2" value="0" style="shape=ellipse;html=1;dashed=0;whiteSpace=wrap;aspect=fixed;perimeter=ellipsePerimeter;" vertex="1" parent="1">
          <mxGeometry x="383" y="345" width="60" height="60" as="geometry" />
        </mxCell>
        <mxCell id="OMTe5yJ27pXv2nIP3M5t-9" style="edgeStyle=orthogonalEdgeStyle;rounded=0;orthogonalLoop=1;jettySize=auto;html=1;exitX=0.5;exitY=1;exitDx=0;exitDy=0;entryX=0.5;entryY=0;entryDx=0;entryDy=0;" edge="1" parent="1" source="OMTe5yJ27pXv2nIP3M5t-5" target="OMTe5yJ27pXv2nIP3M5t-8">
          <mxGeometry relative="1" as="geometry">
            <mxPoint x="413" y="595" as="targetPoint" />
          </mxGeometry>
        </mxCell>
        <mxCell id="OMTe5yJ27pXv2nIP3M5t-10" value="east/near detected" style="edgeLabel;html=1;align=center;verticalAlign=middle;resizable=0;points=[];" vertex="1" connectable="0" parent="OMTe5yJ27pXv2nIP3M5t-9">
          <mxGeometry x="-0.02" y="-4" relative="1" as="geometry">
            <mxPoint as="offset" />
          </mxGeometry>
        </mxCell>
        <mxCell id="OMTe5yJ27pXv2nIP3M5t-5" value="eb0&lt;hr&gt;close gates" style="shape=ellipse;html=1;dashed=0;whiteSpace=wrap;aspect=fixed;perimeter=ellipsePerimeter;" vertex="1" parent="1">
          <mxGeometry x="383" y="475" width="60" height="60" as="geometry" />
        </mxCell>
        <mxCell id="OMTe5yJ27pXv2nIP3M5t-12" style="edgeStyle=orthogonalEdgeStyle;rounded=0;orthogonalLoop=1;jettySize=auto;html=1;exitX=0.5;exitY=1;exitDx=0;exitDy=0;entryX=0.5;entryY=0;entryDx=0;entryDy=0;" edge="1" parent="1" source="OMTe5yJ27pXv2nIP3M5t-8" target="OMTe5yJ27pXv2nIP3M5t-11">
          <mxGeometry relative="1" as="geometry" />
        </mxCell>
        <mxCell id="OMTe5yJ27pXv2nIP3M5t-13" value="east/near not detected" style="edgeLabel;html=1;align=center;verticalAlign=middle;resizable=0;points=[];" vertex="1" connectable="0" parent="OMTe5yJ27pXv2nIP3M5t-12">
          <mxGeometry x="0.0333" y="1" relative="1" as="geometry">
            <mxPoint as="offset" />
          </mxGeometry>
        </mxCell>
        <mxCell id="OMTe5yJ27pXv2nIP3M5t-18" style="edgeStyle=orthogonalEdgeStyle;rounded=0;orthogonalLoop=1;jettySize=auto;html=1;exitX=0.5;exitY=1;exitDx=0;exitDy=0;entryX=0.5;entryY=0;entryDx=0;entryDy=0;" edge="1" parent="1" source="OMTe5yJ27pXv2nIP3M5t-8" target="OMTe5yJ27pXv2nIP3M5t-17">
          <mxGeometry relative="1" as="geometry" />
        </mxCell>
        <mxCell id="OMTe5yJ27pXv2nIP3M5t-20" value="east/far detected" style="edgeLabel;html=1;align=center;verticalAlign=middle;resizable=0;points=[];" vertex="1" connectable="0" parent="OMTe5yJ27pXv2nIP3M5t-18">
          <mxGeometry x="-0.0114" y="1" relative="1" as="geometry">
            <mxPoint as="offset" />
          </mxGeometry>
        </mxCell>
        <mxCell id="OMTe5yJ27pXv2nIP3M5t-8" value="eb1" style="shape=ellipse;html=1;dashed=0;whiteSpace=wrap;aspect=fixed;perimeter=ellipsePerimeter;" vertex="1" parent="1">
          <mxGeometry x="383" y="595" width="60" height="60" as="geometry" />
        </mxCell>
        <mxCell id="OMTe5yJ27pXv2nIP3M5t-15" style="edgeStyle=orthogonalEdgeStyle;rounded=0;orthogonalLoop=1;jettySize=auto;html=1;exitX=0.5;exitY=1;exitDx=0;exitDy=0;entryX=0.5;entryY=0;entryDx=0;entryDy=0;" edge="1" parent="1" source="OMTe5yJ27pXv2nIP3M5t-11" target="OMTe5yJ27pXv2nIP3M5t-14">
          <mxGeometry relative="1" as="geometry" />
        </mxCell>
        <mxCell id="OMTe5yJ27pXv2nIP3M5t-16" value="east/far detected" style="edgeLabel;html=1;align=center;verticalAlign=middle;resizable=0;points=[];" vertex="1" connectable="0" parent="OMTe5yJ27pXv2nIP3M5t-15">
          <mxGeometry x="-0.04" y="1" relative="1" as="geometry">
            <mxPoint as="offset" />
          </mxGeometry>
        </mxCell>
        <mxCell id="OMTe5yJ27pXv2nIP3M5t-11" value="eb2&lt;hr&gt;open gates" style="shape=ellipse;html=1;dashed=0;whiteSpace=wrap;aspect=fixed;perimeter=ellipsePerimeter;" vertex="1" parent="1">
          <mxGeometry x="523" y="695" width="60" height="60" as="geometry" />
        </mxCell>
        <mxCell id="OMTe5yJ27pXv2nIP3M5t-35" style="edgeStyle=orthogonalEdgeStyle;rounded=0;orthogonalLoop=1;jettySize=auto;html=1;exitX=0.5;exitY=1;exitDx=0;exitDy=0;entryX=1;entryY=0.5;entryDx=0;entryDy=0;" edge="1" parent="1" source="OMTe5yJ27pXv2nIP3M5t-14" target="OMTe5yJ27pXv2nIP3M5t-2">
          <mxGeometry relative="1" as="geometry">
            <Array as="points">
              <mxPoint x="553" y="885" />
              <mxPoint x="633" y="885" />
              <mxPoint x="633" y="375" />
            </Array>
          </mxGeometry>
        </mxCell>
        <mxCell id="OMTe5yJ27pXv2nIP3M5t-36" value="east/far not detected" style="edgeLabel;html=1;align=center;verticalAlign=middle;resizable=0;points=[];" vertex="1" connectable="0" parent="OMTe5yJ27pXv2nIP3M5t-35">
          <mxGeometry x="-0.1126" y="-3" relative="1" as="geometry">
            <mxPoint as="offset" />
          </mxGeometry>
        </mxCell>
        <mxCell id="OMTe5yJ27pXv2nIP3M5t-14" value="eb3" style="shape=ellipse;html=1;dashed=0;whiteSpace=wrap;aspect=fixed;perimeter=ellipsePerimeter;" vertex="1" parent="1">
          <mxGeometry x="523" y="815" width="60" height="60" as="geometry" />
        </mxCell>
        <mxCell id="OMTe5yJ27pXv2nIP3M5t-22" style="edgeStyle=orthogonalEdgeStyle;rounded=0;orthogonalLoop=1;jettySize=auto;html=1;exitX=0.5;exitY=1;exitDx=0;exitDy=0;entryX=0.5;entryY=0;entryDx=0;entryDy=0;" edge="1" parent="1" source="OMTe5yJ27pXv2nIP3M5t-17" target="OMTe5yJ27pXv2nIP3M5t-21">
          <mxGeometry relative="1" as="geometry" />
        </mxCell>
        <mxCell id="OMTe5yJ27pXv2nIP3M5t-23" value="east/near not detected" style="edgeLabel;html=1;align=center;verticalAlign=middle;resizable=0;points=[];" vertex="1" connectable="0" parent="OMTe5yJ27pXv2nIP3M5t-22">
          <mxGeometry x="-0.0857" y="-1" relative="1" as="geometry">
            <mxPoint as="offset" />
          </mxGeometry>
        </mxCell>
        <mxCell id="OMTe5yJ27pXv2nIP3M5t-17" value="eb4" style="shape=ellipse;html=1;dashed=0;whiteSpace=wrap;aspect=fixed;perimeter=ellipsePerimeter;" vertex="1" parent="1">
          <mxGeometry x="243" y="695" width="60" height="60" as="geometry" />
        </mxCell>
        <mxCell id="OMTe5yJ27pXv2nIP3M5t-33" style="edgeStyle=orthogonalEdgeStyle;rounded=0;orthogonalLoop=1;jettySize=auto;html=1;exitX=0.5;exitY=1;exitDx=0;exitDy=0;entryX=0;entryY=0.5;entryDx=0;entryDy=0;" edge="1" parent="1" source="OMTe5yJ27pXv2nIP3M5t-21" target="OMTe5yJ27pXv2nIP3M5t-2">
          <mxGeometry relative="1" as="geometry">
            <Array as="points">
              <mxPoint x="273" y="885" />
              <mxPoint x="193" y="885" />
              <mxPoint x="193" y="375" />
            </Array>
          </mxGeometry>
        </mxCell>
        <mxCell id="OMTe5yJ27pXv2nIP3M5t-34" value="east/far not detected" style="edgeLabel;html=1;align=center;verticalAlign=middle;resizable=0;points=[];" vertex="1" connectable="0" parent="OMTe5yJ27pXv2nIP3M5t-33">
          <mxGeometry x="-0.1014" y="-1" relative="1" as="geometry">
            <mxPoint as="offset" />
          </mxGeometry>
        </mxCell>
        <mxCell id="OMTe5yJ27pXv2nIP3M5t-21" value="eb5&lt;hr&gt;open gates" style="shape=ellipse;html=1;dashed=0;whiteSpace=wrap;aspect=fixed;perimeter=ellipsePerimeter;" vertex="1" parent="1">
          <mxGeometry x="243" y="815" width="60" height="60" as="geometry" />
        </mxCell>
        <mxCell id="OMTe5yJ27pXv2nIP3M5t-40" style="edgeStyle=orthogonalEdgeStyle;rounded=0;orthogonalLoop=1;jettySize=auto;html=1;exitX=0.5;exitY=1;exitDx=0;exitDy=0;entryX=0.5;entryY=0;entryDx=0;entryDy=0;" edge="1" parent="1" source="OMTe5yJ27pXv2nIP3M5t-38" target="OMTe5yJ27pXv2nIP3M5t-2">
          <mxGeometry relative="1" as="geometry" />
        </mxCell>
        <mxCell id="OMTe5yJ27pXv2nIP3M5t-38" value="" style="ellipse;whiteSpace=wrap;html=1;aspect=fixed;" vertex="1" parent="1">
          <mxGeometry x="406" y="285" width="14" height="14" as="geometry" />
        </mxCell>
        <mxCell id="OMTe5yJ27pXv2nIP3M5t-41" style="edgeStyle=orthogonalEdgeStyle;rounded=0;orthogonalLoop=1;jettySize=auto;html=1;exitX=0.5;exitY=1;exitDx=0;exitDy=0;entryX=0.5;entryY=0;entryDx=0;entryDy=0;" edge="1" parent="1" source="OMTe5yJ27pXv2nIP3M5t-43" target="OMTe5yJ27pXv2nIP3M5t-46">
          <mxGeometry relative="1" as="geometry" />
        </mxCell>
        <mxCell id="OMTe5yJ27pXv2nIP3M5t-42" value="east/far detected" style="edgeLabel;html=1;align=center;verticalAlign=middle;resizable=0;points=[];" vertex="1" connectable="0" parent="OMTe5yJ27pXv2nIP3M5t-41">
          <mxGeometry x="0.075" relative="1" as="geometry">
            <mxPoint y="-3" as="offset" />
          </mxGeometry>
        </mxCell>
        <mxCell id="OMTe5yJ27pXv2nIP3M5t-43" value="0" style="shape=ellipse;html=1;dashed=0;whiteSpace=wrap;aspect=fixed;perimeter=ellipsePerimeter;" vertex="1" parent="1">
          <mxGeometry x="1211" y="345" width="60" height="60" as="geometry" />
        </mxCell>
        <mxCell id="OMTe5yJ27pXv2nIP3M5t-44" style="edgeStyle=orthogonalEdgeStyle;rounded=0;orthogonalLoop=1;jettySize=auto;html=1;exitX=0.5;exitY=1;exitDx=0;exitDy=0;entryX=0.5;entryY=0;entryDx=0;entryDy=0;" edge="1" parent="1" source="OMTe5yJ27pXv2nIP3M5t-46" target="OMTe5yJ27pXv2nIP3M5t-51">
          <mxGeometry relative="1" as="geometry">
            <mxPoint x="1241" y="595" as="targetPoint" />
          </mxGeometry>
        </mxCell>
        <mxCell id="OMTe5yJ27pXv2nIP3M5t-45" value="west/near detected" style="edgeLabel;html=1;align=center;verticalAlign=middle;resizable=0;points=[];" vertex="1" connectable="0" parent="OMTe5yJ27pXv2nIP3M5t-44">
          <mxGeometry x="-0.02" y="-4" relative="1" as="geometry">
            <mxPoint x="4" as="offset" />
          </mxGeometry>
        </mxCell>
        <mxCell id="OMTe5yJ27pXv2nIP3M5t-46" value="wb0&lt;hr&gt;close gates" style="shape=ellipse;html=1;dashed=0;whiteSpace=wrap;aspect=fixed;perimeter=ellipsePerimeter;" vertex="1" parent="1">
          <mxGeometry x="1211" y="475" width="60" height="60" as="geometry" />
        </mxCell>
        <mxCell id="OMTe5yJ27pXv2nIP3M5t-47" style="edgeStyle=orthogonalEdgeStyle;rounded=0;orthogonalLoop=1;jettySize=auto;html=1;exitX=0.5;exitY=1;exitDx=0;exitDy=0;entryX=0.5;entryY=0;entryDx=0;entryDy=0;" edge="1" parent="1" source="OMTe5yJ27pXv2nIP3M5t-51" target="OMTe5yJ27pXv2nIP3M5t-54">
          <mxGeometry relative="1" as="geometry" />
        </mxCell>
        <mxCell id="OMTe5yJ27pXv2nIP3M5t-48" value="west/near not detected" style="edgeLabel;html=1;align=center;verticalAlign=middle;resizable=0;points=[];" vertex="1" connectable="0" parent="OMTe5yJ27pXv2nIP3M5t-47">
          <mxGeometry x="0.0333" y="1" relative="1" as="geometry">
            <mxPoint as="offset" />
          </mxGeometry>
        </mxCell>
        <mxCell id="OMTe5yJ27pXv2nIP3M5t-49" style="edgeStyle=orthogonalEdgeStyle;rounded=0;orthogonalLoop=1;jettySize=auto;html=1;exitX=0.5;exitY=1;exitDx=0;exitDy=0;entryX=0.5;entryY=0;entryDx=0;entryDy=0;" edge="1" parent="1" source="OMTe5yJ27pXv2nIP3M5t-51" target="OMTe5yJ27pXv2nIP3M5t-60">
          <mxGeometry relative="1" as="geometry" />
        </mxCell>
        <mxCell id="OMTe5yJ27pXv2nIP3M5t-50" value="west/far detected" style="edgeLabel;html=1;align=center;verticalAlign=middle;resizable=0;points=[];" vertex="1" connectable="0" parent="OMTe5yJ27pXv2nIP3M5t-49">
          <mxGeometry x="-0.0114" y="1" relative="1" as="geometry">
            <mxPoint x="1" as="offset" />
          </mxGeometry>
        </mxCell>
        <mxCell id="OMTe5yJ27pXv2nIP3M5t-51" value="wb1" style="shape=ellipse;html=1;dashed=0;whiteSpace=wrap;aspect=fixed;perimeter=ellipsePerimeter;" vertex="1" parent="1">
          <mxGeometry x="1211" y="595" width="60" height="60" as="geometry" />
        </mxCell>
        <mxCell id="OMTe5yJ27pXv2nIP3M5t-52" style="edgeStyle=orthogonalEdgeStyle;rounded=0;orthogonalLoop=1;jettySize=auto;html=1;exitX=0.5;exitY=1;exitDx=0;exitDy=0;entryX=0.5;entryY=0;entryDx=0;entryDy=0;" edge="1" parent="1" source="OMTe5yJ27pXv2nIP3M5t-54" target="OMTe5yJ27pXv2nIP3M5t-57">
          <mxGeometry relative="1" as="geometry" />
        </mxCell>
        <mxCell id="OMTe5yJ27pXv2nIP3M5t-53" value="west/far detected" style="edgeLabel;html=1;align=center;verticalAlign=middle;resizable=0;points=[];" vertex="1" connectable="0" parent="OMTe5yJ27pXv2nIP3M5t-52">
          <mxGeometry x="-0.04" y="1" relative="1" as="geometry">
            <mxPoint as="offset" />
          </mxGeometry>
        </mxCell>
        <mxCell id="OMTe5yJ27pXv2nIP3M5t-54" value="wb2&lt;hr&gt;open gates" style="shape=ellipse;html=1;dashed=0;whiteSpace=wrap;aspect=fixed;perimeter=ellipsePerimeter;" vertex="1" parent="1">
          <mxGeometry x="1351" y="695" width="60" height="60" as="geometry" />
        </mxCell>
        <mxCell id="OMTe5yJ27pXv2nIP3M5t-55" style="edgeStyle=orthogonalEdgeStyle;rounded=0;orthogonalLoop=1;jettySize=auto;html=1;exitX=0.5;exitY=1;exitDx=0;exitDy=0;entryX=1;entryY=0.5;entryDx=0;entryDy=0;" edge="1" parent="1" source="OMTe5yJ27pXv2nIP3M5t-57" target="OMTe5yJ27pXv2nIP3M5t-43">
          <mxGeometry relative="1" as="geometry">
            <Array as="points">
              <mxPoint x="1381" y="885" />
              <mxPoint x="1461" y="885" />
              <mxPoint x="1461" y="375" />
            </Array>
          </mxGeometry>
        </mxCell>
        <mxCell id="OMTe5yJ27pXv2nIP3M5t-56" value="west/far not detected" style="edgeLabel;html=1;align=center;verticalAlign=middle;resizable=0;points=[];" vertex="1" connectable="0" parent="OMTe5yJ27pXv2nIP3M5t-55">
          <mxGeometry x="-0.1126" y="-3" relative="1" as="geometry">
            <mxPoint x="-4" y="-4" as="offset" />
          </mxGeometry>
        </mxCell>
        <mxCell id="OMTe5yJ27pXv2nIP3M5t-57" value="wb3" style="shape=ellipse;html=1;dashed=0;whiteSpace=wrap;aspect=fixed;perimeter=ellipsePerimeter;" vertex="1" parent="1">
          <mxGeometry x="1351" y="815" width="60" height="60" as="geometry" />
        </mxCell>
        <mxCell id="OMTe5yJ27pXv2nIP3M5t-58" style="edgeStyle=orthogonalEdgeStyle;rounded=0;orthogonalLoop=1;jettySize=auto;html=1;exitX=0.5;exitY=1;exitDx=0;exitDy=0;entryX=0.5;entryY=0;entryDx=0;entryDy=0;" edge="1" parent="1" source="OMTe5yJ27pXv2nIP3M5t-60" target="OMTe5yJ27pXv2nIP3M5t-63">
          <mxGeometry relative="1" as="geometry" />
        </mxCell>
        <mxCell id="OMTe5yJ27pXv2nIP3M5t-59" value="west/near not detected" style="edgeLabel;html=1;align=center;verticalAlign=middle;resizable=0;points=[];" vertex="1" connectable="0" parent="OMTe5yJ27pXv2nIP3M5t-58">
          <mxGeometry x="-0.0857" y="-1" relative="1" as="geometry">
            <mxPoint x="1" as="offset" />
          </mxGeometry>
        </mxCell>
        <mxCell id="OMTe5yJ27pXv2nIP3M5t-60" value="wb4" style="shape=ellipse;html=1;dashed=0;whiteSpace=wrap;aspect=fixed;perimeter=ellipsePerimeter;" vertex="1" parent="1">
          <mxGeometry x="1071" y="695" width="60" height="60" as="geometry" />
        </mxCell>
        <mxCell id="OMTe5yJ27pXv2nIP3M5t-61" style="edgeStyle=orthogonalEdgeStyle;rounded=0;orthogonalLoop=1;jettySize=auto;html=1;exitX=0.5;exitY=1;exitDx=0;exitDy=0;entryX=0;entryY=0.5;entryDx=0;entryDy=0;" edge="1" parent="1" source="OMTe5yJ27pXv2nIP3M5t-63" target="OMTe5yJ27pXv2nIP3M5t-43">
          <mxGeometry relative="1" as="geometry">
            <Array as="points">
              <mxPoint x="1101" y="885" />
              <mxPoint x="1021" y="885" />
              <mxPoint x="1021" y="375" />
            </Array>
          </mxGeometry>
        </mxCell>
        <mxCell id="OMTe5yJ27pXv2nIP3M5t-62" value="west/far not detected" style="edgeLabel;html=1;align=center;verticalAlign=middle;resizable=0;points=[];" vertex="1" connectable="0" parent="OMTe5yJ27pXv2nIP3M5t-61">
          <mxGeometry x="-0.1014" y="-1" relative="1" as="geometry">
            <mxPoint as="offset" />
          </mxGeometry>
        </mxCell>
        <mxCell id="OMTe5yJ27pXv2nIP3M5t-63" value="wb5&lt;hr&gt;open gates" style="shape=ellipse;html=1;dashed=0;whiteSpace=wrap;aspect=fixed;perimeter=ellipsePerimeter;" vertex="1" parent="1">
          <mxGeometry x="1071" y="815" width="60" height="60" as="geometry" />
        </mxCell>
        <mxCell id="OMTe5yJ27pXv2nIP3M5t-64" style="edgeStyle=orthogonalEdgeStyle;rounded=0;orthogonalLoop=1;jettySize=auto;html=1;exitX=0.5;exitY=1;exitDx=0;exitDy=0;entryX=0.5;entryY=0;entryDx=0;entryDy=0;" edge="1" parent="1" source="OMTe5yJ27pXv2nIP3M5t-65" target="OMTe5yJ27pXv2nIP3M5t-43">
          <mxGeometry relative="1" as="geometry" />
        </mxCell>
        <mxCell id="OMTe5yJ27pXv2nIP3M5t-65" value="" style="ellipse;whiteSpace=wrap;html=1;aspect=fixed;" vertex="1" parent="1">
          <mxGeometry x="1234" y="285" width="14" height="14" as="geometry" />
        </mxCell>
        <mxCell id="OMTe5yJ27pXv2nIP3M5t-66" value="&lt;b&gt;&lt;font style=&quot;font-size: 16px;&quot;&gt;Train eastbound&lt;/font&gt;&lt;/b&gt;" style="text;html=1;align=center;verticalAlign=middle;whiteSpace=wrap;rounded=0;" vertex="1" parent="1">
          <mxGeometry x="345" y="220" width="136" height="30" as="geometry" />
        </mxCell>
        <mxCell id="OMTe5yJ27pXv2nIP3M5t-92" value="&lt;b&gt;&lt;font style=&quot;font-size: 16px;&quot;&gt;Train westbound&lt;/font&gt;&lt;/b&gt;" style="text;html=1;align=center;verticalAlign=middle;whiteSpace=wrap;rounded=0;" vertex="1" parent="1">
          <mxGeometry x="1173" y="220" width="136" height="30" as="geometry" />
        </mxCell>
        <mxCell id="OMTe5yJ27pXv2nIP3M5t-93" value="" style="endArrow=classic;html=1;rounded=0;" edge="1" parent="1">
          <mxGeometry width="50" height="50" relative="1" as="geometry">
            <mxPoint x="370" y="200" as="sourcePoint" />
            <mxPoint x="457" y="200" as="targetPoint" />
          </mxGeometry>
        </mxCell>
        <mxCell id="OMTe5yJ27pXv2nIP3M5t-95" value="" style="endArrow=none;html=1;rounded=0;startArrow=classic;startFill=1;endFill=0;" edge="1" parent="1">
          <mxGeometry width="50" height="50" relative="1" as="geometry">
            <mxPoint x="1197.5" y="200" as="sourcePoint" />
            <mxPoint x="1284.5" y="200" as="targetPoint" />
          </mxGeometry>
        </mxCell>
      </root>
    </mxGraphModel>
  </diagram>
</mxfile>
